<svg xmlns="http://www.w3.org/2000/svg" xmlns:xlink="http://www.w3.org/1999/xlink" version="1.1" width="256" height="256" viewBox="0 0 256 256" xml:space="preserve">

<defs>
</defs>
<g style="stroke: none; stroke-width: 0; stroke-dasharray: none; stroke-linecap: butt; stroke-linejoin: miter; stroke-miterlimit: 10; fill: none; fill-rule: nonzero; opacity: 1;" transform="translate(1.4065934065934016 1.4065934065934016) scale(2.81 2.81)" >
	<path d="M 87.978 18.995 h -2.076 c -1.117 0 -2.022 0.906 -2.022 2.022 c 0 1.117 0.906 2.022 2.022 2.022 h 0.053 v 48.67 l -30.889 -0.104 c -2.008 0.082 -3.717 0.613 -5.064 1.567 c -0.589 0.408 -1.692 0.977 -2.462 0.217 c -0.526 -0.519 -0.76 -1.553 -0.206 -2.379 c 1.539 -2.089 3.224 -3.298 7.291 -3.298 h 26.317 c 1.117 0 2.022 -0.906 2.022 -2.022 v -51.48 c 0 -1.117 -0.906 -2.022 -2.022 -2.022 H 54.625 c -4.96 0 -7.89 1.456 -9.625 3.272 c -1.734 -1.816 -4.665 -3.272 -9.624 -3.272 H 9.058 c -1.117 0 -2.022 0.906 -2.022 2.022 v 51.48 c 0 1.117 0.906 2.022 2.022 2.022 h 26.318 c 4.065 0 5.752 1.21 7.242 3.229 c 0.602 0.895 0.369 1.929 -0.158 2.448 c -0.771 0.76 -1.873 0.192 -2.446 -0.206 c -1.364 -0.965 -3.073 -1.496 -5.17 -1.58 L 4.045 71.71 V 23.04 h 0.054 c 1.117 0 2.022 -0.906 2.022 -2.022 c 0 -1.117 -0.906 -2.022 -2.022 -2.022 H 2.022 C 0.906 18.995 0 19.9 0 21.017 v 52.722 c 0 0.537 0.214 1.053 0.595 1.433 c 0.381 0.378 0.853 0.588 1.434 0.59 l 32.739 -0.115 c 1.214 0.05 2.193 0.333 2.926 0.85 c 1.261 0.874 2.602 1.309 3.878 1.309 c 1.26 0 2.443 -0.447 3.429 -1.292 c 0.984 0.844 2.166 1.29 3.425 1.29 c 1.279 0 2.628 -0.437 3.898 -1.318 c 0.716 -0.507 1.695 -0.789 2.819 -0.837 l 32.829 0.113 c 0.002 0 0.005 0 0.007 0 c 0.535 0 1.049 -0.212 1.428 -0.59 c 0.38 -0.38 0.594 -0.896 0.594 -1.433 V 21.017 C 90 19.9 89.094 18.995 87.978 18.995 z M 35.376 63.668 H 11.081 V 16.234 h 24.295 c 5.817 0 7.161 2.28 7.602 3.388 v 41.802 c 0 1.117 0.906 2.022 2.022 2.022 s 2.022 -0.906 2.022 -2.022 V 19.617 c 0.443 -1.11 1.798 -3.384 7.602 -3.384 h 24.294 v 47.435 H 54.625 c -5.101 0 -7.793 1.757 -9.621 3.806 C 43.204 65.449 40.511 63.668 35.376 63.668 z" style="stroke: none; stroke-width: 1; stroke-dasharray: none; stroke-linecap: butt; stroke-linejoin: miter; stroke-miterlimit: 10; fill: rgb(0,0,0); fill-rule: nonzero; opacity: 1;" transform=" matrix(1 0 0 1 0 0) " stroke-linecap="round" />
	<path d="M 36.375 29.001 c -0.508 0 -1.017 -0.19 -1.41 -0.572 c -2.221 -2.16 -5.38 -2.151 -8.165 -2.151 l -12.247 0 c -1.117 0 -2.022 -0.906 -2.022 -2.022 c 0 -1.117 0.906 -2.022 2.022 -2.022 l 12.241 0 c 3.209 0.001 7.589 -0.01 10.99 3.296 c 0.801 0.779 0.819 2.059 0.04 2.86 C 37.429 28.796 36.902 29.001 36.375 29.001 z" style="stroke: none; stroke-width: 1; stroke-dasharray: none; stroke-linecap: butt; stroke-linejoin: miter; stroke-miterlimit: 10; fill: rgb(0,0,0); fill-rule: nonzero; opacity: 1;" transform=" matrix(1 0 0 1 0 0) " stroke-linecap="round" />
	<path d="M 36.375 38.769 c -0.508 0 -1.017 -0.19 -1.41 -0.572 c -2.221 -2.16 -5.38 -2.156 -8.165 -2.151 l -12.247 0 c -1.117 0 -2.022 -0.906 -2.022 -2.022 s 0.906 -2.022 2.022 -2.022 l 12.241 0 c 3.209 0.009 7.589 -0.01 10.99 3.296 c 0.801 0.779 0.819 2.059 0.04 2.86 C 37.429 38.564 36.902 38.769 36.375 38.769 z" style="stroke: none; stroke-width: 1; stroke-dasharray: none; stroke-linecap: butt; stroke-linejoin: miter; stroke-miterlimit: 10; fill: rgb(0,0,0); fill-rule: nonzero; opacity: 1;" transform=" matrix(1 0 0 1 0 0) " stroke-linecap="round" />
	<path d="M 36.375 48.536 c -0.509 0 -1.017 -0.191 -1.41 -0.573 c -2.22 -2.159 -5.375 -2.144 -8.163 -2.151 l -12.248 0 c -1.117 0 -2.022 -0.906 -2.022 -2.022 c 0 -1.117 0.906 -2.022 2.022 -2.022 l 12.242 0 c 3.198 -0.008 7.589 -0.011 10.989 3.296 c 0.8 0.779 0.819 2.059 0.04 2.86 C 37.429 48.332 36.902 48.536 36.375 48.536 z" style="stroke: none; stroke-width: 1; stroke-dasharray: none; stroke-linecap: butt; stroke-linejoin: miter; stroke-miterlimit: 10; fill: rgb(0,0,0); fill-rule: nonzero; opacity: 1;" transform=" matrix(1 0 0 1 0 0) " stroke-linecap="round" />
	<path d="M 36.375 58.304 c -0.508 0 -1.017 -0.191 -1.41 -0.573 c -2.221 -2.16 -5.374 -2.164 -8.166 -2.151 H 14.554 c -1.117 0 -2.022 -0.906 -2.022 -2.022 c 0 -1.117 0.906 -2.022 2.022 -2.022 h 12.24 c 3.208 -0.034 7.591 -0.011 10.991 3.296 c 0.801 0.778 0.819 2.059 0.04 2.86 C 37.429 58.1 36.902 58.304 36.375 58.304 z" style="stroke: none; stroke-width: 1; stroke-dasharray: none; stroke-linecap: butt; stroke-linejoin: miter; stroke-miterlimit: 10; fill: rgb(0,0,0); fill-rule: nonzero; opacity: 1;" transform=" matrix(1 0 0 1 0 0) " stroke-linecap="round" />
	<path d="M 53.624 29.001 c -0.527 0 -1.054 -0.205 -1.45 -0.613 c -0.779 -0.801 -0.761 -2.081 0.04 -2.86 c 3.401 -3.307 7.781 -3.297 10.991 -3.296 l 12.24 0 c 1.117 0 2.022 0.906 2.022 2.022 c 0 1.117 -0.906 2.022 -2.022 2.022 l -12.246 0 c -2.795 -0.001 -5.944 -0.008 -8.165 2.151 C 54.641 28.811 54.133 29.001 53.624 29.001 z" style="stroke: none; stroke-width: 1; stroke-dasharray: none; stroke-linecap: butt; stroke-linejoin: miter; stroke-miterlimit: 10; fill: rgb(0,0,0); fill-rule: nonzero; opacity: 1;" transform=" matrix(1 0 0 1 0 0) " stroke-linecap="round" />
	<path d="M 53.624 38.769 c -0.527 0 -1.054 -0.205 -1.45 -0.613 c -0.779 -0.801 -0.761 -2.081 0.04 -2.86 c 3.401 -3.307 7.781 -3.288 10.991 -3.296 l 12.24 0 c 1.117 0 2.022 0.906 2.022 2.022 s -0.906 2.022 -2.022 2.022 l -12.246 0 c -2.795 -0.006 -5.944 -0.009 -8.165 2.151 C 54.641 38.579 54.133 38.769 53.624 38.769 z" style="stroke: none; stroke-width: 1; stroke-dasharray: none; stroke-linecap: butt; stroke-linejoin: miter; stroke-miterlimit: 10; fill: rgb(0,0,0); fill-rule: nonzero; opacity: 1;" transform=" matrix(1 0 0 1 0 0) " stroke-linecap="round" />
	<path d="M 53.624 48.536 c -0.527 0 -1.054 -0.204 -1.45 -0.612 c -0.779 -0.801 -0.761 -2.081 0.04 -2.86 c 3.4 -3.307 7.793 -3.301 10.989 -3.296 l 12.242 0 c 1.117 0 2.022 0.906 2.022 2.022 c 0 1.117 -0.906 2.022 -2.022 2.022 l -12.248 0 c -2.793 0 -5.943 -0.008 -8.163 2.151 C 54.641 48.346 54.133 48.536 53.624 48.536 z" style="stroke: none; stroke-width: 1; stroke-dasharray: none; stroke-linecap: butt; stroke-linejoin: miter; stroke-miterlimit: 10; fill: rgb(0,0,0); fill-rule: nonzero; opacity: 1;" transform=" matrix(1 0 0 1 0 0) " stroke-linecap="round" />
	<path d="M 53.624 58.304 c -0.527 0 -1.054 -0.204 -1.45 -0.612 c -0.779 -0.801 -0.761 -2.082 0.04 -2.86 c 3.401 -3.308 7.791 -3.314 10.992 -3.296 h 12.24 c 1.117 0 2.022 0.906 2.022 2.022 c 0 1.117 -0.906 2.022 -2.022 2.022 H 63.2 c -2.77 -0.016 -5.944 -0.009 -8.166 2.151 C 54.641 58.114 54.133 58.304 53.624 58.304 z" style="stroke: none; stroke-width: 1; stroke-dasharray: none; stroke-linecap: butt; stroke-linejoin: miter; stroke-miterlimit: 10; fill: rgb(0,0,0); fill-rule: nonzero; opacity: 1;" transform=" matrix(1 0 0 1 0 0) " stroke-linecap="round" />
</g>
</svg>