<svg xmlns="http://www.w3.org/2000/svg" xmlns:xlink="http://www.w3.org/1999/xlink" version="1.1" width="256" height="256" viewBox="0 0 256 256" xml:space="preserve">

<defs>
</defs>
<g style="stroke: none; stroke-width: 0; stroke-dasharray: none; stroke-linecap: butt; stroke-linejoin: miter; stroke-miterlimit: 10; fill: none; fill-rule: nonzero; opacity: 1;" transform="translate(1.4065934065934016 1.4065934065934016) scale(2.81 2.81)" >
	<path d="M 43.206 89.999 c -2.85 0 -5.581 -1.016 -8.233 -2.001 c -2.833 -1.053 -5.511 -2.045 -8.161 -1.812 l -8.257 0.733 v -29.72 l 4.827 -0.429 c 2.691 -0.238 4.94 0.806 6.919 1.728 c 1.746 0.813 3.257 1.515 4.934 1.41 l 12.744 -2.309 c 4.888 -0.838 7.71 1.91 9.181 3.971 l 13.11 -6.095 c 5.771 -2.593 12.207 -0.06 16.032 6.292 c 1.224 2.03 0.554 4.722 -1.494 5.999 c -1.806 1.126 -3.604 2.253 -5.385 3.369 c -15.668 9.817 -29.198 18.296 -35.198 18.819 C 43.883 89.985 43.543 89.999 43.206 89.999 z M 27.62 82.151 c 3.1 0 5.965 1.064 8.746 2.099 c 2.667 0.991 5.189 1.927 7.508 1.721 c 5.043 -0.44 19.472 -9.481 33.425 -18.224 c 1.782 -1.117 3.583 -2.245 5.392 -3.374 c 0.194 -0.121 0.283 -0.379 0.186 -0.54 c -2.775 -4.605 -7.068 -6.463 -10.944 -4.719 l -16.346 7.6 l -0.914 -1.593 c -1.731 -3.02 -3.408 -4.031 -5.998 -3.582 L 35.65 63.887 c -2.771 0.229 -5.037 -0.83 -7.038 -1.764 c -1.743 -0.812 -3.255 -1.51 -4.876 -1.369 l -1.181 0.104 v 21.689 l 3.904 -0.347 C 26.849 82.167 27.236 82.151 27.62 82.151 z" style="stroke: none; stroke-width: 1; stroke-dasharray: none; stroke-linecap: butt; stroke-linejoin: miter; stroke-miterlimit: 10; fill: rgb(0,0,0); fill-rule: nonzero; opacity: 1;" transform=" matrix(1 0 0 1 0 0) " stroke-linecap="round" />
	<path d="M 39.638 76.604 c -0.934 0 -1.769 -0.657 -1.959 -1.608 c -0.216 -1.083 0.486 -2.137 1.569 -2.353 c 4.694 -0.938 9.965 -3.037 16.067 -6.401 l -0.643 -1.12 c -0.55 -0.958 -0.22 -2.181 0.738 -2.73 c 0.959 -0.552 2.182 -0.219 2.73 0.738 l 1.646 2.868 c 0.55 0.958 0.22 2.179 -0.736 2.729 c -7.23 4.162 -13.452 6.725 -19.019 7.838 C 39.899 76.591 39.768 76.604 39.638 76.604 z" style="stroke: none; stroke-width: 1; stroke-dasharray: none; stroke-linecap: butt; stroke-linejoin: miter; stroke-miterlimit: 10; fill: rgb(0,0,0); fill-rule: nonzero; opacity: 1;" transform=" matrix(1 0 0 1 0 0) " stroke-linecap="round" />
	<path d="M 18.268 89.999 H 7.37 c -2.363 0 -4.286 -1.923 -4.286 -4.286 V 56.416 c 0 -2.363 1.923 -4.286 4.286 -4.286 h 10.899 c 2.363 0 4.286 1.923 4.286 4.286 v 29.297 C 22.555 88.077 20.632 89.999 18.268 89.999 z M 7.37 56.13 c -0.158 0 -0.286 0.128 -0.286 0.286 v 29.297 c 0 0.158 0.128 0.286 0.286 0.286 h 10.899 c 0.158 0 0.286 -0.128 0.286 -0.286 V 56.416 c 0 -0.158 -0.128 -0.286 -0.286 -0.286 H 7.37 z" style="stroke: none; stroke-width: 1; stroke-dasharray: none; stroke-linecap: butt; stroke-linejoin: miter; stroke-miterlimit: 10; fill: rgb(0,0,0); fill-rule: nonzero; opacity: 1;" transform=" matrix(1 0 0 1 0 0) " stroke-linecap="round" />
	<path d="M 50.998 50.948 c -0.416 0 -0.832 -0.082 -1.229 -0.246 c -0.792 -0.328 -1.409 -0.945 -1.736 -1.737 c -0.526 -1.269 -1.66 -2.026 -3.034 -2.026 c -1.374 0 -2.507 0.758 -3.033 2.027 c -0.679 1.636 -2.561 2.415 -4.194 1.736 l -5.501 -2.279 c -1.634 -0.678 -2.414 -2.559 -1.737 -4.193 c 0.526 -1.27 0.26 -2.607 -0.711 -3.579 c -0.972 -0.972 -2.311 -1.239 -3.578 -0.712 c -0.791 0.328 -1.663 0.328 -2.457 0 c -0.792 -0.328 -1.409 -0.945 -1.737 -1.737 l -2.279 -5.501 c -0.677 -1.635 0.103 -3.516 1.736 -4.194 c 1.27 -0.526 2.027 -1.66 2.027 -3.034 c 0 -1.374 -0.757 -2.507 -2.026 -3.033 c -1.635 -0.678 -2.414 -2.559 -1.738 -4.193 l 2.28 -5.503 c 0.328 -0.791 0.945 -1.408 1.737 -1.736 c 0.793 -0.328 1.665 -0.328 2.457 0 c 1.269 0.526 2.606 0.26 3.577 -0.712 c 0.972 -0.971 1.238 -2.309 0.712 -3.578 c -0.328 -0.791 -0.329 -1.664 0 -2.456 c 0.328 -0.792 0.945 -1.41 1.738 -1.738 l 5.501 -2.279 c 1.637 -0.678 3.516 0.103 4.194 1.736 c 0.526 1.27 1.66 2.027 3.033 2.027 c 1.374 0 2.508 -0.757 3.034 -2.027 c 0.326 -0.791 0.943 -1.408 1.736 -1.737 c 0.793 -0.328 1.665 -0.328 2.456 0 l 5.503 2.28 c 1.634 0.676 2.413 2.556 1.738 4.191 c -0.526 1.271 -0.261 2.608 0.71 3.58 c 0.972 0.972 2.311 1.239 3.578 0.712 c 1.634 -0.679 3.516 0.101 4.194 1.735 l 2.278 5.503 c 0.328 0.791 0.328 1.664 0 2.456 c -0.327 0.792 -0.944 1.409 -1.736 1.737 c -1.27 0.526 -2.027 1.66 -2.027 3.033 c 0 1.374 0.758 2.508 2.027 3.034 c 0 0 0.001 0 0.002 0 c 0.791 0.329 1.407 0.946 1.735 1.738 c 0.327 0.793 0.326 1.666 -0.003 2.458 l -2.277 5.499 c -0.678 1.636 -2.561 2.414 -4.194 1.737 c -1.27 -0.525 -2.605 -0.259 -3.578 0.712 c -0.971 0.971 -1.237 2.309 -0.712 3.578 c 0.678 1.634 -0.102 3.516 -1.736 4.193 l -5.502 2.279 C 51.831 50.866 51.414 50.948 50.998 50.948 z M 34.494 45.015 l 4.117 1.705 c 1.27 -2.351 3.654 -3.781 6.389 -3.781 c 2.734 0 5.118 1.43 6.39 3.781 l 4.116 -1.705 c -0.765 -2.562 -0.09 -5.258 1.844 -7.192 c 1.935 -1.934 4.632 -2.606 7.192 -1.844 l 1.705 -4.117 c -2.352 -1.271 -3.781 -3.654 -3.781 -6.389 c 0 -2.734 1.43 -5.118 3.781 -6.389 l -1.704 -4.116 c -2.561 0.763 -5.259 0.09 -7.192 -1.845 c -1.934 -1.934 -2.607 -4.629 -1.844 -7.19 L 51.39 4.228 C 50.117 6.58 47.734 8.009 45 8.009 c 0 0 0 0 0 0 c -2.735 0 -5.118 -1.43 -6.389 -3.781 l -4.117 1.705 c 0.764 2.562 0.089 5.258 -1.844 7.192 c -1.934 1.934 -4.631 2.607 -7.192 1.844 l -1.705 4.116 c 2.352 1.27 3.781 3.654 3.781 6.389 s -1.43 5.118 -3.781 6.389 l 1.705 4.116 c 2.561 -0.763 5.259 -0.089 7.192 1.845 C 34.584 39.757 35.258 42.453 34.494 45.015 z M 51.73 3.511 c 0 0.001 -0.001 0.002 -0.001 0.002 C 51.729 3.513 51.73 3.512 51.73 3.511 z" style="stroke: none; stroke-width: 1; stroke-dasharray: none; stroke-linecap: butt; stroke-linejoin: miter; stroke-miterlimit: 10; fill: rgb(0,0,0); fill-rule: nonzero; opacity: 1;" transform=" matrix(1 0 0 1 0 0) " stroke-linecap="round" />
	<path d="M 45 35.449 c -5.5 0 -9.975 -4.475 -9.975 -9.975 S 39.5 15.499 45 15.499 c 5.5 0 9.974 4.475 9.974 9.975 S 50.5 35.449 45 35.449 z M 45 19.499 c -3.295 0 -5.975 2.68 -5.975 5.975 s 2.68 5.975 5.975 5.975 c 3.294 0 5.975 -2.68 5.975 -5.975 S 48.294 19.499 45 19.499 z" style="stroke: none; stroke-width: 1; stroke-dasharray: none; stroke-linecap: butt; stroke-linejoin: miter; stroke-miterlimit: 10; fill: rgb(0,0,0); fill-rule: nonzero; opacity: 1;" transform=" matrix(1 0 0 1 0 0) " stroke-linecap="round" />
</g>
</svg>