<svg xmlns="http://www.w3.org/2000/svg" xmlns:xlink="http://www.w3.org/1999/xlink" version="1.1" width="256" height="256" viewBox="0 0 256 256" xml:space="preserve">

<defs>
</defs>
<g style="stroke: none; stroke-width: 0; stroke-dasharray: none; stroke-linecap: butt; stroke-linejoin: miter; stroke-miterlimit: 10; fill: none; fill-rule: nonzero; opacity: 1;" transform="translate(1.4065934065934016 1.4065934065934016) scale(2.81 2.81)" >
	<path d="M 61.835 54.838 c -0.378 0 -0.754 -0.106 -1.081 -0.317 c -0.572 -0.368 -0.919 -1.002 -0.919 -1.683 V 34.704 c 0 -0.783 0.457 -1.494 1.169 -1.819 l 13.094 -5.982 c 0.619 -0.282 1.341 -0.23 1.912 0.137 c 0.572 0.368 0.919 1.002 0.919 1.683 v 18.134 c 0 0.783 -0.457 1.494 -1.169 1.819 l -13.094 5.982 C 62.401 54.778 62.117 54.838 61.835 54.838 z M 63.835 35.989 v 13.737 l 9.094 -4.155 V 31.834 L 63.835 35.989 z M 74.929 46.855 h 0.01 H 74.929 z" style="stroke: none; stroke-width: 1; stroke-dasharray: none; stroke-linecap: butt; stroke-linejoin: miter; stroke-miterlimit: 10; fill: rgb(0,0,0); fill-rule: nonzero; opacity: 1;" transform=" matrix(1 0 0 1 0 0) " stroke-linecap="round" />
	<path d="M 61.836 61.817 c -0.759 0 -1.484 -0.434 -1.82 -1.169 c -0.459 -1.005 -0.017 -2.191 0.988 -2.65 l 13.094 -5.982 c 1.005 -0.459 2.19 -0.018 2.65 0.988 c 0.459 1.005 0.017 2.191 -0.988 2.65 l -13.094 5.982 C 62.396 61.76 62.114 61.817 61.836 61.817 z" style="stroke: none; stroke-width: 1; stroke-dasharray: none; stroke-linecap: butt; stroke-linejoin: miter; stroke-miterlimit: 10; fill: rgb(0,0,0); fill-rule: nonzero; opacity: 1;" transform=" matrix(1 0 0 1 0 0) " stroke-linecap="round" />
	<path d="M 61.836 68.797 c -0.759 0 -1.484 -0.434 -1.82 -1.169 c -0.459 -1.005 -0.017 -2.191 0.988 -2.65 l 13.094 -5.982 c 1.005 -0.459 2.19 -0.018 2.65 0.988 c 0.459 1.005 0.017 2.191 -0.988 2.65 l -13.094 5.982 C 62.396 68.739 62.114 68.797 61.836 68.797 z" style="stroke: none; stroke-width: 1; stroke-dasharray: none; stroke-linecap: butt; stroke-linejoin: miter; stroke-miterlimit: 10; fill: rgb(0,0,0); fill-rule: nonzero; opacity: 1;" transform=" matrix(1 0 0 1 0 0) " stroke-linecap="round" />
	<path d="M 28.165 54.838 c -0.283 0 -0.566 -0.06 -0.831 -0.181 l -13.093 -5.982 c -0.712 -0.325 -1.169 -1.036 -1.169 -1.819 V 28.721 c 0 -0.681 0.346 -1.314 0.919 -1.683 c 0.573 -0.368 1.294 -0.418 1.912 -0.137 l 13.093 5.982 c 0.712 0.326 1.169 1.037 1.169 1.819 v 18.134 c 0 0.681 -0.346 1.314 -0.919 1.683 C 28.918 54.731 28.542 54.838 28.165 54.838 z M 17.072 45.57 l 9.093 4.155 V 35.989 l -9.093 -4.155 V 45.57 z" style="stroke: none; stroke-width: 1; stroke-dasharray: none; stroke-linecap: butt; stroke-linejoin: miter; stroke-miterlimit: 10; fill: rgb(0,0,0); fill-rule: nonzero; opacity: 1;" transform=" matrix(1 0 0 1 0 0) " stroke-linecap="round" />
	<path d="M 28.164 61.817 c -0.278 0 -0.56 -0.058 -0.83 -0.181 l -13.093 -5.982 c -1.005 -0.459 -1.447 -1.646 -0.988 -2.65 c 0.459 -1.004 1.646 -1.446 2.65 -0.988 l 13.093 5.982 c 1.005 0.459 1.447 1.646 0.988 2.65 C 29.648 61.384 28.922 61.817 28.164 61.817 z" style="stroke: none; stroke-width: 1; stroke-dasharray: none; stroke-linecap: butt; stroke-linejoin: miter; stroke-miterlimit: 10; fill: rgb(0,0,0); fill-rule: nonzero; opacity: 1;" transform=" matrix(1 0 0 1 0 0) " stroke-linecap="round" />
	<path d="M 28.164 68.797 c -0.278 0 -0.56 -0.058 -0.83 -0.181 l -13.093 -5.982 c -1.005 -0.459 -1.447 -1.646 -0.988 -2.65 c 0.459 -1.004 1.646 -1.446 2.65 -0.988 l 13.093 5.982 c 1.005 0.459 1.447 1.646 0.988 2.65 C 29.648 68.363 28.922 68.797 28.164 68.797 z" style="stroke: none; stroke-width: 1; stroke-dasharray: none; stroke-linecap: butt; stroke-linejoin: miter; stroke-miterlimit: 10; fill: rgb(0,0,0); fill-rule: nonzero; opacity: 1;" transform=" matrix(1 0 0 1 0 0) " stroke-linecap="round" />
	<path d="M 49.811 86.382 c -0.378 0 -0.754 -0.106 -1.081 -0.317 c -0.572 -0.368 -0.919 -1.002 -0.919 -1.683 V 31.489 c 0 -0.783 0.457 -1.494 1.169 -1.819 L 87.169 12.22 c 0.618 -0.282 1.341 -0.231 1.912 0.137 C 89.653 12.725 90 13.359 90 14.04 v 52.893 c 0 0.783 -0.457 1.494 -1.169 1.819 L 50.642 86.201 C 50.377 86.322 50.093 86.382 49.811 86.382 z M 51.811 32.774 V 81.27 L 86 65.647 V 17.152 L 51.811 32.774 z M 88 66.933 h 0.01 H 88 z" style="stroke: none; stroke-width: 1; stroke-dasharray: none; stroke-linecap: butt; stroke-linejoin: miter; stroke-miterlimit: 10; fill: rgb(0,0,0); fill-rule: nonzero; opacity: 1;" transform=" matrix(1 0 0 1 0 0) " stroke-linecap="round" />
	<path d="M 40.19 86.382 c -0.283 0 -0.566 -0.06 -0.831 -0.181 L 1.169 68.752 C 0.457 68.427 0 67.716 0 66.933 V 14.04 c 0 -0.681 0.346 -1.314 0.919 -1.683 c 0.573 -0.368 1.294 -0.418 1.912 -0.137 l 38.19 17.449 c 0.712 0.326 1.169 1.037 1.169 1.819 v 52.893 c 0 0.681 -0.346 1.314 -0.919 1.683 C 40.943 86.275 40.567 86.382 40.19 86.382 z M 4 65.647 L 38.19 81.27 V 32.774 L 4 17.152 V 65.647 z" style="stroke: none; stroke-width: 1; stroke-dasharray: none; stroke-linecap: butt; stroke-linejoin: miter; stroke-miterlimit: 10; fill: rgb(0,0,0); fill-rule: nonzero; opacity: 1;" transform=" matrix(1 0 0 1 0 0) " stroke-linecap="round" />
	<path d="M 49.811 86.382 H 40.19 c -1.104 0 -2 -0.896 -2 -2 V 31.489 c 0 -1.104 0.896 -2 2 -2 h 9.621 c 1.104 0 2 0.896 2 2 v 52.893 C 51.811 85.486 50.915 86.382 49.811 86.382 z M 42.19 82.382 h 5.621 V 33.489 H 42.19 V 82.382 z" style="stroke: none; stroke-width: 1; stroke-dasharray: none; stroke-linecap: butt; stroke-linejoin: miter; stroke-miterlimit: 10; fill: rgb(0,0,0); fill-rule: nonzero; opacity: 1;" transform=" matrix(1 0 0 1 0 0) " stroke-linecap="round" />
	<path d="M 45 33.489 c -1.104 0 -2 -0.896 -2 -2 v -1.58 c 0 -2.953 -1.444 -5.642 -3.864 -7.195 c -7.78 -4.991 -17.093 -8.558 -28.453 -10.895 l -7.768 3.998 c -0.98 0.507 -2.187 0.12 -2.693 -0.863 c -0.505 -0.982 -0.119 -2.188 0.863 -2.693 l 8.393 -4.319 c 0.402 -0.207 0.863 -0.273 1.307 -0.183 c 12.168 2.433 22.148 6.224 30.511 11.588 C 44.868 21.64 47 25.587 47 29.909 v 1.58 C 47 32.593 46.104 33.489 45 33.489 z" style="stroke: none; stroke-width: 1; stroke-dasharray: none; stroke-linecap: butt; stroke-linejoin: miter; stroke-miterlimit: 10; fill: rgb(0,0,0); fill-rule: nonzero; opacity: 1;" transform=" matrix(1 0 0 1 0 0) " stroke-linecap="round" />
	<path d="M 45 33.489 c -1.104 0 -2 -0.896 -2 -2 v -1.58 c 0 -4.321 2.132 -8.27 5.704 -10.561 c 8.363 -5.365 18.344 -9.156 30.511 -11.589 c 0.443 -0.091 0.905 -0.024 1.308 0.183 l 8.393 4.319 c 0.982 0.505 1.369 1.711 0.863 2.693 c -0.504 0.982 -1.708 1.37 -2.693 0.863 l -7.769 -3.998 c -11.358 2.337 -20.672 5.904 -28.452 10.895 C 48.444 24.267 47 26.957 47 29.909 v 1.58 C 47 32.593 46.104 33.489 45 33.489 z" style="stroke: none; stroke-width: 1; stroke-dasharray: none; stroke-linecap: butt; stroke-linejoin: miter; stroke-miterlimit: 10; fill: rgb(0,0,0); fill-rule: nonzero; opacity: 1;" transform=" matrix(1 0 0 1 0 0) " stroke-linecap="round" />
	<path d="M 45 31.909 c -1.104 0 -2 -0.896 -2 -2 c 0 -11.581 -3.639 -17.284 -14.161 -21.434 v 5.564 c 0 1.104 -0.896 2 -2 2 s -2 -0.896 -2 -2 V 5.619 c 0 -0.645 0.311 -1.249 0.834 -1.625 c 0.523 -0.375 1.195 -0.475 1.806 -0.27 C 41.709 8.531 47 15.627 47 29.909 C 47 31.014 46.104 31.909 45 31.909 z" style="stroke: none; stroke-width: 1; stroke-dasharray: none; stroke-linecap: butt; stroke-linejoin: miter; stroke-miterlimit: 10; fill: rgb(0,0,0); fill-rule: nonzero; opacity: 1;" transform=" matrix(1 0 0 1 0 0) " stroke-linecap="round" />
</g>
</svg>