<svg xmlns="http://www.w3.org/2000/svg" xmlns:xlink="http://www.w3.org/1999/xlink" version="1.1" width="256" height="256" viewBox="0 0 256 256" xml:space="preserve">

<defs>
</defs>
<g style="stroke: none; stroke-width: 0; stroke-dasharray: none; stroke-linecap: butt; stroke-linejoin: miter; stroke-miterlimit: 10; fill: none; fill-rule: nonzero; opacity: 1;" transform="translate(1.4065934065934016 1.4065934065934016) scale(2.81 2.81)" >
	<path d="M 89 75.078 h -3.679 V 29.974 c 0 -3.483 -2.834 -6.317 -6.317 -6.317 h -5.052 c -0.553 0 -1 0.448 -1 1 s 0.447 1 1 1 h 5.052 c 2.381 0 4.317 1.937 4.317 4.317 v 45.104 H 50.836 H 39.164 H 6.679 V 29.974 c 0 -2.38 1.937 -4.317 4.325 -4.317 l 5.267 -0.04 c 0.552 -0.004 0.997 -0.455 0.993 -1.007 c -0.004 -0.55 -0.451 -0.993 -1 -0.993 c -0.002 0 -0.005 0 -0.007 0 l -5.259 0.04 c -3.483 0 -6.317 2.834 -6.317 6.317 v 45.104 H 1 c -0.552 0 -1 0.447 -1 1 v 0.908 c 0 3.323 2.703 6.026 6.026 6.026 h 33.138 h 11.672 h 33.138 c 3.323 0 6.026 -2.703 6.026 -6.026 v -0.908 C 90 75.525 89.553 75.078 89 75.078 z M 6.026 81.013 c -2.189 0 -3.976 -1.757 -4.025 -3.935 h 2.678 h 34.485 v 3.935 H 6.026 z M 41.164 81.013 v -3.935 h 7.672 v 3.935 H 41.164 z M 83.974 81.013 H 50.836 v -3.935 h 34.485 h 2.678 C 87.95 79.256 86.163 81.013 83.974 81.013 z" style="stroke: none; stroke-width: 1; stroke-dasharray: none; stroke-linecap: butt; stroke-linejoin: miter; stroke-miterlimit: 10; fill: rgb(0,0,0); fill-rule: nonzero; opacity: 1;" transform=" matrix(1 0 0 1 0 0) " stroke-linecap="round" />
	<path d="M 78.888 71.078 c 0.553 0 1 -0.447 1 -1 V 32.3 c 0 -1.569 -1.276 -2.846 -2.846 -2.846 h -3.09 c -0.553 0 -1 0.448 -1 1 s 0.447 1 1 1 h 3.09 c 0.467 0 0.846 0.379 0.846 0.846 v 37.778 C 77.888 70.631 78.335 71.078 78.888 71.078 z" style="stroke: none; stroke-width: 1; stroke-dasharray: none; stroke-linecap: butt; stroke-linejoin: miter; stroke-miterlimit: 10; fill: rgb(0,0,0); fill-rule: nonzero; opacity: 1;" transform=" matrix(1 0 0 1 0 0) " stroke-linecap="round" />
	<path d="M 16.263 29.454 h -3.305 c -1.569 0 -2.846 1.277 -2.846 2.846 v 37.778 c 0 0.553 0.448 1 1 1 s 1 -0.447 1 -1 V 32.3 c 0 -0.467 0.379 -0.846 0.846 -0.846 h 3.305 c 0.552 0 1 -0.448 1 -1 S 16.815 29.454 16.263 29.454 z" style="stroke: none; stroke-width: 1; stroke-dasharray: none; stroke-linecap: butt; stroke-linejoin: miter; stroke-miterlimit: 10; fill: rgb(0,0,0); fill-rule: nonzero; opacity: 1;" transform=" matrix(1 0 0 1 0 0) " stroke-linecap="round" />
	<path d="M 25.743 67.902 h 38.728 c 2.471 0 4.481 -2.01 4.481 -4.48 V 24.849 h -0.027 c -0.071 -1.333 -0.649 -2.528 -1.559 -3.391 l 0.006 -0.006 l -12.992 -13 l -0.003 0.003 c -0.853 -0.846 -2.01 -1.372 -3.286 -1.44 V 6.987 H 25.743 c -2.471 0 -4.48 2.01 -4.48 4.48 v 29.222 v 22.732 C 21.263 65.893 23.272 67.902 25.743 67.902 z M 55.877 12.778 l 7.28 7.284 H 58.75 c -1.584 0 -2.873 -1.289 -2.873 -2.874 V 12.778 z M 23.263 11.468 c 0 -1.368 1.113 -2.48 2.48 -2.48 h 25.082 c 1.683 0 3.052 1.369 3.052 3.052 v 5.149 c 0 2.688 2.187 4.874 4.873 4.874 h 5.149 c 1.684 0 3.053 1.369 3.053 3.052 v 38.308 c 0 1.368 -1.113 2.48 -2.481 2.48 H 25.743 c -1.368 0 -2.48 -1.112 -2.48 -2.48 V 40.689 V 11.468 z" style="stroke: none; stroke-width: 1; stroke-dasharray: none; stroke-linecap: butt; stroke-linejoin: miter; stroke-miterlimit: 10; fill: rgb(0,0,0); fill-rule: nonzero; opacity: 1;" transform=" matrix(1 0 0 1 0 0) " stroke-linecap="round" />
	<path d="M 31.521 53.281 h 26.959 c 0.553 0 1 -0.447 1 -1 s -0.447 -1 -1 -1 H 31.521 c -0.552 0 -1 0.447 -1 1 S 30.968 53.281 31.521 53.281 z" style="stroke: none; stroke-width: 1; stroke-dasharray: none; stroke-linecap: butt; stroke-linejoin: miter; stroke-miterlimit: 10; fill: rgb(0,0,0); fill-rule: nonzero; opacity: 1;" transform=" matrix(1 0 0 1 0 0) " stroke-linecap="round" />
	<path d="M 31.521 59.307 h 26.959 c 0.553 0 1 -0.447 1 -1 s -0.447 -1 -1 -1 H 31.521 c -0.552 0 -1 0.447 -1 1 S 30.968 59.307 31.521 59.307 z" style="stroke: none; stroke-width: 1; stroke-dasharray: none; stroke-linecap: butt; stroke-linejoin: miter; stroke-miterlimit: 10; fill: rgb(0,0,0); fill-rule: nonzero; opacity: 1;" transform=" matrix(1 0 0 1 0 0) " stroke-linecap="round" />
	<path d="M 31.958 45.739 c 0.552 0 1 -0.448 1 -1 v -6.748 h 8.123 v 6.748 c 0 0.552 0.448 1 1 1 s 1 -0.448 1 -1 V 31.91 c 0 -3.342 -2.719 -6.062 -6.062 -6.062 s -6.062 2.719 -6.062 6.062 v 12.829 C 30.958 45.291 31.406 45.739 31.958 45.739 z M 37.02 27.849 c 2.24 0 4.062 1.822 4.062 4.062 v 4.081 h -8.123 V 31.91 C 32.958 29.67 34.78 27.849 37.02 27.849 z" style="stroke: none; stroke-width: 1; stroke-dasharray: none; stroke-linecap: butt; stroke-linejoin: miter; stroke-miterlimit: 10; fill: rgb(0,0,0); fill-rule: nonzero; opacity: 1;" transform=" matrix(1 0 0 1 0 0) " stroke-linecap="round" />
	<path d="M 47.919 37.991 h 4.062 v 4.062 c 0 0.552 0.447 1 1 1 s 1 -0.448 1 -1 v -4.062 h 4.062 c 0.553 0 1 -0.448 1 -1 s -0.447 -1 -1 -1 H 53.98 v -4.062 c 0 -0.552 -0.447 -1 -1 -1 s -1 0.448 -1 1 v 4.062 h -4.062 c -0.553 0 -1 0.448 -1 1 S 47.366 37.991 47.919 37.991 z" style="stroke: none; stroke-width: 1; stroke-dasharray: none; stroke-linecap: butt; stroke-linejoin: miter; stroke-miterlimit: 10; fill: rgb(0,0,0); fill-rule: nonzero; opacity: 1;" transform=" matrix(1 0 0 1 0 0) " stroke-linecap="round" />
</g>
</svg>