<svg xmlns="http://www.w3.org/2000/svg" xmlns:xlink="http://www.w3.org/1999/xlink" version="1.1" width="256" height="256" viewBox="0 0 256 256" xml:space="preserve">

<defs>
</defs>
<g style="stroke: none; stroke-width: 0; stroke-dasharray: none; stroke-linecap: butt; stroke-linejoin: miter; stroke-miterlimit: 10; fill: none; fill-rule: nonzero; opacity: 1;" transform="translate(1.4065934065934016 1.4065934065934016) scale(2.81 2.81)" >
	<path d="M 72.737 90 H 17.262 c -3.076 0 -5.578 -2.502 -5.578 -5.578 V 18.599 c 0 -3.076 2.502 -5.578 5.578 -5.578 h 10.485 c 1.104 0 2 0.896 2 2 s -0.896 2 -2 2 H 17.262 c -0.87 0 -1.578 0.708 -1.578 1.578 v 65.823 c 0 0.87 0.708 1.578 1.578 1.578 h 55.475 c 0.87 0 1.578 -0.708 1.578 -1.578 V 18.599 c 0 -0.87 -0.708 -1.578 -1.578 -1.578 H 62.252 c -1.104 0 -2 -0.896 -2 -2 s 0.896 -2 2 -2 h 10.485 c 3.076 0 5.578 2.502 5.578 5.578 v 65.823 C 78.315 87.498 75.813 90 72.737 90 z" style="stroke: none; stroke-width: 1; stroke-dasharray: none; stroke-linecap: butt; stroke-linejoin: miter; stroke-miterlimit: 10; fill: rgb(0,0,0); fill-rule: nonzero; opacity: 1;" transform=" matrix(1 0 0 1 0 0) " stroke-linecap="round" />
	<path d="M 62.252 21.57 H 27.748 c -1.104 0 -2 -0.896 -2 -2 v -5.494 c 0 -4.028 3.277 -7.306 7.306 -7.306 h 2.788 C 37.044 2.808 40.71 0 45 0 s 7.955 2.808 9.158 6.77 h 2.789 c 4.027 0 7.305 3.277 7.305 7.306 v 5.494 C 64.252 20.674 63.356 21.57 62.252 21.57 z M 29.748 17.57 h 30.504 v -3.494 c 0 -1.823 -1.482 -3.306 -3.305 -3.306 h -4.416 c -1.023 0 -1.881 -0.772 -1.989 -1.79 C 50.242 6.141 47.859 4 45 4 c -2.86 0 -5.243 2.141 -5.543 4.98 c -0.107 1.018 -0.966 1.79 -1.989 1.79 h -4.415 c -1.823 0 -3.306 1.483 -3.306 3.306 V 17.57 z" style="stroke: none; stroke-width: 1; stroke-dasharray: none; stroke-linecap: butt; stroke-linejoin: miter; stroke-miterlimit: 10; fill: rgb(0,0,0); fill-rule: nonzero; opacity: 1;" transform=" matrix(1 0 0 1 0 0) " stroke-linecap="round" />
	<path d="M 27.618 40.754 c -0.057 0 -0.114 -0.002 -0.171 -0.007 c -0.621 -0.053 -1.181 -0.393 -1.516 -0.919 l -3.096 -4.866 c -0.593 -0.932 -0.318 -2.168 0.614 -2.761 c 0.933 -0.592 2.168 -0.318 2.761 0.614 l 1.691 2.657 l 5.403 -5.939 c 0.743 -0.818 2.008 -0.877 2.825 -0.134 s 0.877 2.008 0.134 2.825 L 29.097 40.1 C 28.716 40.518 28.178 40.754 27.618 40.754 z" style="stroke: none; stroke-width: 1; stroke-dasharray: none; stroke-linecap: butt; stroke-linejoin: miter; stroke-miterlimit: 10; fill: rgb(0,0,0); fill-rule: nonzero; opacity: 1;" transform=" matrix(1 0 0 1 0 0) " stroke-linecap="round" />
	<path d="M 27.618 59.834 c -0.057 0 -0.114 -0.002 -0.171 -0.008 c -0.621 -0.053 -1.182 -0.393 -1.516 -0.919 l -3.096 -4.866 c -0.593 -0.932 -0.318 -2.168 0.614 -2.761 c 0.933 -0.594 2.168 -0.318 2.761 0.614 l 1.691 2.657 l 5.403 -5.939 c 0.743 -0.817 2.008 -0.877 2.825 -0.134 s 0.877 2.008 0.134 2.825 l -7.165 7.876 C 28.716 59.599 28.178 59.834 27.618 59.834 z" style="stroke: none; stroke-width: 1; stroke-dasharray: none; stroke-linecap: butt; stroke-linejoin: miter; stroke-miterlimit: 10; fill: rgb(0,0,0); fill-rule: nonzero; opacity: 1;" transform=" matrix(1 0 0 1 0 0) " stroke-linecap="round" />
	<path d="M 27.618 78.914 c -0.057 0 -0.114 -0.002 -0.171 -0.008 c -0.621 -0.053 -1.182 -0.393 -1.516 -0.919 l -3.096 -4.866 c -0.593 -0.932 -0.318 -2.168 0.614 -2.761 c 0.933 -0.594 2.168 -0.317 2.761 0.614 l 1.691 2.657 l 5.403 -5.94 c 0.743 -0.817 2.008 -0.877 2.825 -0.134 s 0.877 2.008 0.134 2.825 l -7.165 7.877 C 28.716 78.679 28.178 78.914 27.618 78.914 z" style="stroke: none; stroke-width: 1; stroke-dasharray: none; stroke-linecap: butt; stroke-linejoin: miter; stroke-miterlimit: 10; fill: rgb(0,0,0); fill-rule: nonzero; opacity: 1;" transform=" matrix(1 0 0 1 0 0) " stroke-linecap="round" />
	<path d="M 65.479 37.177 H 42.254 c -1.104 0 -2 -0.896 -2 -2 s 0.896 -2 2 -2 h 23.224 c 1.104 0 2 0.896 2 2 S 66.583 37.177 65.479 37.177 z" style="stroke: none; stroke-width: 1; stroke-dasharray: none; stroke-linecap: butt; stroke-linejoin: miter; stroke-miterlimit: 10; fill: rgb(0,0,0); fill-rule: nonzero; opacity: 1;" transform=" matrix(1 0 0 1 0 0) " stroke-linecap="round" />
	<path d="M 65.479 56.257 H 42.254 c -1.104 0 -2 -0.896 -2 -2 s 0.896 -2 2 -2 h 23.224 c 1.104 0 2 0.896 2 2 S 66.583 56.257 65.479 56.257 z" style="stroke: none; stroke-width: 1; stroke-dasharray: none; stroke-linecap: butt; stroke-linejoin: miter; stroke-miterlimit: 10; fill: rgb(0,0,0); fill-rule: nonzero; opacity: 1;" transform=" matrix(1 0 0 1 0 0) " stroke-linecap="round" />
	<path d="M 65.479 75.336 H 42.254 c -1.104 0 -2 -0.896 -2 -2 s 0.896 -2 2 -2 h 23.224 c 1.104 0 2 0.896 2 2 S 66.583 75.336 65.479 75.336 z" style="stroke: none; stroke-width: 1; stroke-dasharray: none; stroke-linecap: butt; stroke-linejoin: miter; stroke-miterlimit: 10; fill: rgb(0,0,0); fill-rule: nonzero; opacity: 1;" transform=" matrix(1 0 0 1 0 0) " stroke-linecap="round" />
</g>
</svg>